# xmcd CD database file
#
# Track frame offsets:
#	150
#	17817
#	49997
#	67672
#
# Disc length: 1328 seconds
#
# Revision: 0
# Processed by: cddbd v1.5.1PL2 Copyright (c) Steve Scherf et al.
# Submitted via: CD2WAV32(JP) R3.22
#
DISCID=2b052e04
DTITLE=奥井雅美 - zero-G-
DYEAR=2006
DGENRE=Anime
TTITLE0=zero-G-
TTITLE1=Gift
TTITLE2=zero-G- (Instrumental)
TTITLE3=Gift (Instrumental)
EXTD=
EXTT0=
EXTT1=
EXTT2=
EXTT3=
PLAYORDER=
